<svg preserveAspectRatio="none" width="100%" height="100%" overflow="visible" style="display: block;" viewBox="0 0 30 30" fill="none" xmlns="http://www.w3.org/2000/svg">
<g id="6860b5acf4298d81623d2fe7_Contact%20Icon03.svg">
<path id="Vector" d="M24.375 2.5H5.625C2.52375 2.5 0 5.02375 0 8.125V21.875C0 24.9762 2.52375 27.5 5.625 27.5H24.375C27.4762 27.5 30 24.9762 30 21.875V8.125C30 5.02375 27.4762 2.5 24.375 2.5ZM5.625 3.75H24.375C25.73 3.75 26.9288 4.3825 27.7325 5.35375L18.1187 14.9688C17.2913 15.795 16.1725 16.25 14.9975 16.25C13.855 16.2288 12.715 15.8 11.8825 14.9688L2.2675 5.35375C3.07125 4.3825 4.26875 3.75 5.625 3.75ZM28.75 21.875C28.75 24.2875 26.7875 26.25 24.375 26.25H5.625C3.2125 26.25 1.25 24.2875 1.25 21.875V8.125C1.25 7.52875 1.37125 6.96125 1.58875 6.4425L10.9987 15.8525C12.0625 16.9163 13.4738 17.5 14.97 17.5C16.4662 17.5 17.9387 16.9163 19.0025 15.8525L28.4125 6.4425C28.63 6.96125 28.7512 7.52875 28.7512 8.125L28.75 21.875Z" fill="var(--fill-0, #156BA8)"/>
</g>
</svg>
