<svg preserveAspectRatio="none" width="100%" height="100%" overflow="visible" style="display: block;" viewBox="0 0 30 30" fill="none" xmlns="http://www.w3.org/2000/svg">
<g id="6860b5ac7b02f6fd877ab966_Contact%20Icon02.svg">
<path id="Vector" d="M17.0703 9.41626C17.0703 9.76126 17.3503 10.0413 17.6953 10.0413C18.8028 10.0413 19.7028 10.96 19.7028 12.0888C19.7028 12.4338 19.9828 12.7138 20.3278 12.7138C20.6728 12.7138 20.9528 12.4338 20.9528 12.0888C20.9528 10.27 19.4916 8.79126 17.6953 8.79126C17.3503 8.79126 17.0703 9.07126 17.0703 9.41626Z" fill="var(--fill-0, #156BA8)"/>
<path id="Vector_2" d="M17.3418 4.6875C21.6468 4.6875 25.1505 8.2475 25.1505 12.6225C25.1505 12.9675 25.4305 13.2475 25.7755 13.2475C26.1205 13.2475 26.4005 12.9675 26.4005 12.6225C26.4005 7.55875 22.3368 3.4375 17.3418 3.4375C16.9968 3.4375 16.7168 3.7175 16.7168 4.0625C16.7168 4.4075 16.9968 4.6875 17.3418 4.6875Z" fill="var(--fill-0, #156BA8)"/>
<path id="Vector_3" d="M28.4852 20.3912C27.9252 18.6712 26.5327 17.3212 24.7627 16.7812C22.7364 16.16 20.5402 16.6825 19.0352 18.14L18.5077 18.6512C17.0089 18.275 15.0014 16.845 14.0577 15.94C13.1002 14.96 11.6902 12.9587 11.3164 11.5225L11.8277 11.0037C13.3002 9.50747 13.8264 7.32872 13.2002 5.31372C12.6539 3.55622 11.2939 2.17622 9.56019 1.62122C7.56769 0.982475 5.41144 1.51748 3.98144 2.97497C3.84144 3.09123 0.553937 5.87123 1.38144 10.3462C2.22394 14.6175 5.27644 19.2775 7.94394 22.0162C10.6939 24.6475 15.3927 27.675 19.6989 28.5087C20.2002 28.6 20.6802 28.6412 21.1389 28.6412C24.6439 28.6412 26.8339 26.2587 27.0952 25.9587C28.5952 24.4925 29.1264 22.3612 28.4839 20.3887L28.4852 20.3912ZM26.2064 25.0825C26.1914 25.0975 26.1764 25.1125 26.1627 25.1287C26.1377 25.1575 23.7239 27.9675 19.9314 27.2812C15.9027 26.5012 11.3427 23.5375 8.82644 21.1287C6.38519 18.6212 3.39894 14.1012 2.61144 10.1112C1.92019 6.37872 4.66394 4.03372 4.82644 3.89372C5.65269 3.05622 6.75144 2.60622 7.87769 2.60622C8.31269 2.60622 8.75269 2.67247 9.18144 2.80997C10.5264 3.24122 11.5839 4.31497 12.0089 5.68247C12.4977 7.25497 12.0877 8.95747 10.9402 10.1237L10.1927 10.8812C10.0527 11.0237 9.98894 11.2237 10.0202 11.42C10.3114 13.2162 12.0352 15.6537 13.1802 16.825C14.3489 17.9475 16.8052 19.6575 18.6089 19.945C18.8014 19.9762 19.0002 19.9137 19.1427 19.7762L19.9064 19.0362C21.0839 17.895 22.8027 17.485 24.3989 17.9737C25.7802 18.3962 26.8639 19.4437 27.2977 20.7762C27.7939 22.3 27.3764 23.9487 26.2077 25.0812L26.2064 25.0825Z" fill="var(--fill-0, #156BA8)"/>
</g>
</svg>
