<svg preserveAspectRatio="none" width="100%" height="100%" overflow="visible" style="display: block;" viewBox="0 0 30 30" fill="none" xmlns="http://www.w3.org/2000/svg">
<g id="6860b5acf4298d81623d2fe1_Contact%20Icon01.svg">
<path id="Vector" d="M15 30C13.4788 30 11.8587 29.195 10.7712 27.9012C5.4375 21.5562 2.5 16.0863 2.5 12.5C2.5 5.6075 8.1075 0 15 0C21.8925 0 27.5 5.6075 27.5 12.5C27.5 16.0863 24.5625 21.5562 19.2288 27.9012C18.1425 29.195 16.5212 30 15 30ZM15 1.25C8.7975 1.25 3.75 6.2975 3.75 12.5C3.75 15.7437 6.65875 21.065 11.7288 27.0975C12.5713 28.1012 13.8562 28.7488 15 28.7488C16.1438 28.7488 17.4275 28.1 18.2712 27.0975C23.3425 21.065 26.25 15.7437 26.25 12.5C26.25 6.29625 21.2038 1.25 15 1.25Z" fill="var(--fill-0, #156BA8)"/>
<path id="Vector_2" d="M15 17.5C12.2425 17.5 10 15.2575 10 12.5C10 9.7425 12.2425 7.5 15 7.5C17.7575 7.5 20 9.7425 20 12.5C20 15.2575 17.7575 17.5 15 17.5ZM15 8.75C12.9325 8.75 11.25 10.4325 11.25 12.5C11.25 14.5675 12.9325 16.25 15 16.25C17.0675 16.25 18.75 14.5675 18.75 12.5C18.75 10.4325 17.0675 8.75 15 8.75Z" fill="var(--fill-0, #156BA8)"/>
</g>
</svg>
